<svg width="15" height="16" viewBox="0 0 15 16" fill="none" xmlns="http://www.w3.org/2000/svg">
<path fill-rule="evenodd" clip-rule="evenodd" d="M1.55303 0.520014C0.802319 0.645866 0.196186 1.23466 0.0382326 1.99152C-0.00850246 2.21536 -0.0109565 2.31357 0.0230456 2.59709C0.183915 3.93921 0.556978 5.36629 1.06132 6.56892C2.94111 11.0515 6.82876 14.274 11.5659 15.2764C12.3837 15.4495 13.0822 15.5307 13.3971 15.4894C14.1535 15.3902 14.804 14.7859 14.9584 14.0388C15.0216 13.7328 15.0097 11.0427 14.9438 10.763C14.7836 10.0825 14.2457 9.54369 13.5662 9.38325C13.3862 9.34076 13.0153 9.33057 11.6322 9.33014C10.6483 9.32982 9.83958 9.34464 9.72939 9.36502C9.62404 9.38446 9.40865 9.46397 9.25077 9.54166C9.00948 9.66043 8.88155 9.76188 8.44831 10.178C8.01307 10.596 7.90342 10.6829 7.74347 10.7361C7.51197 10.8131 7.21228 10.7945 7.01001 10.6906C6.52025 10.4392 4.85856 8.7282 4.56499 8.17318C4.45953 7.97377 4.4585 7.56131 4.56289 7.33311C4.6119 7.22596 4.83324 6.96977 5.21686 6.57611C5.8624 5.91376 5.93909 5.81523 6.06812 5.48245L6.1579 5.25091L6.16938 3.71575C6.18208 2.01485 6.17187 1.90656 5.95947 1.48512C5.81538 1.19925 5.47412 0.857388 5.18891 0.713191C4.7812 0.507083 4.67148 0.496005 3.08241 0.500778C2.29016 0.503165 1.60194 0.511821 1.55303 0.520014Z" fill="white"/>
</svg>
