<svg width="20" height="20" viewBox="0 0 20 20" fill="none" xmlns="http://www.w3.org/2000/svg">
<ellipse cx="10.001" cy="10.0004" rx="9.99902" ry="9.99907" fill="white"/>
<path d="M19.4261 6.66608H13.2651C13.5328 8.80214 13.5343 11.1558 13.2703 13.2945H19.4393C19.7994 12.2627 19.9974 11.1547 19.9974 10.0002C19.9975 8.83055 19.795 7.70892 19.4261 6.66608Z" fill="#3E62BC"/>
<path d="M13.2671 6.66578H19.4279C19.427 6.66261 19.426 6.65995 19.4248 6.65708C18.1451 3.04863 14.8531 0.393765 10.8979 0.0413513C12.4287 0.880356 12.8758 3.53855 13.2671 6.66578Z" fill="white"/>
<path d="M10.8979 19.9583C14.8602 19.6052 18.1568 16.9412 19.4315 13.3231C19.4348 13.3134 19.4377 13.3039 19.4411 13.2946H13.2721C12.8838 16.4388 12.4348 19.1157 10.8979 19.9583Z" fill="#E15551"/>
<path d="M0 10.0002C0 11.1548 0.198309 12.2627 0.55811 13.2945H13.7863C14.0506 11.1556 14.0487 8.80214 13.7814 6.66608H0.571409C0.202573 7.70896 0 8.83059 0 10.0002Z" fill="#3E62BC"/>
<path d="M0.573479 6.65714C0.57255 6.65996 0.571579 6.66267 0.570312 6.66583H13.7803C13.3888 3.53857 12.4269 0.880409 10.8964 0.0414045C10.6003 0.0151856 10.301 0.000366211 9.99818 0.000366211C5.64827 0.000323991 1.94914 2.77847 0.573479 6.65714Z" fill="white"/>
<path d="M13.7867 13.2946H0.558594C0.561929 13.304 0.565053 13.3134 0.56822 13.3231C1.93839 17.2116 5.64284 19.9996 9.99972 19.9996C10.3026 19.9996 10.6019 19.9848 10.8979 19.9583C12.4349 19.1158 13.3985 16.4388 13.7867 13.2946Z" fill="#E15551"/>
</svg>
