<svg xmlns="http://www.w3.org/2000/svg" version="1.1" xmlns:xlink="http://www.w3.org/1999/xlink" xmlns:svgjs="http://svgjs.dev/svgjs" width="1500" height="439" viewBox="0 0 1500 439"><g transform="matrix(1,0,0,1,-0.9090909090909918,-0.6340493344042386)"><svg viewBox="0 0 396 116" data-background-color="#444444" preserveAspectRatio="xMidYMid meet" height="439" width="1500" xmlns="http://www.w3.org/2000/svg" xmlns:xlink="http://www.w3.org/1999/xlink"><g id="tight-bounds" transform="matrix(1,0,0,1,0.2400000000000091,0.1675392318699096)"><svg viewBox="0 0 395.52 115.66492153626021" height="115.66492153626021" width="395.52"><g><svg viewBox="0 0 668.1280575116532 195.38576898326082" height="115.66492153626021" width="395.52"><g transform="matrix(1,0,0,1,272.60805751165327,38.01570953175882)"><svg viewBox="0 0 395.52 119.35434991974317" height="119.35434991974317" width="395.52"><g id="textblocktransform"><svg viewBox="0 0 395.52 119.35434991974317" height="119.35434991974317" width="395.52" id="textblock"><g><svg viewBox="0 0 395.52 119.35434991974317" height="119.35434991974317" width="395.52"><g transform="matrix(1,0,0,1,0,0)"><svg width="395.52" viewBox="-0.3 -37.5 155.74 47" height="119.35434991974317" data-palette-color="#ffffff"><path d="M18.7-33.6Q21.5-33.6 23.88-32.93 26.25-32.25 28.7-30.8L28.7-30.8 29.85-31.75Q31.05-32.7 31.83-33.05 32.6-33.4 33.6-33.4L33.6-33.4Q34.8-33.4 35.5-32.88 36.2-32.35 36.2-31.35L36.2-31.35Q36.2-30.95 36.05-30.5L36.05-30.5 33.95-23.6Q33.6-22.4 33.08-21.9 32.55-21.4 31.5-21.4L31.5-21.4Q30.4-21.4 29.58-22.08 28.75-22.75 27-24.85L27-24.85Q25.25-26.85 23.83-27.68 22.4-28.5 20.9-28.5L20.9-28.5Q19.8-28.5 19.05-27.78 18.3-27.05 18.3-26L18.3-26Q18.3-24.8 19.5-23.78 20.7-22.75 23.25-21.2L23.25-21.2Q25.85-19.65 27.55-18.4 29.25-17.15 30.45-15.3 31.65-13.45 31.65-11.05L31.65-11.05Q31.65-9.5 31.15-7.95L31.15-7.95Q29.95-3.95 26.5-1.88 23.05 0.2 18.45 0.2L18.45 0.2Q15 0.2 12.65-0.6 10.3-1.4 7.85-3.3L7.85-3.3 6.05-1.8Q4.8-0.75 4-0.38 3.2 0 2.2 0L2.2 0Q1.05 0 0.38-0.55-0.3-1.1-0.3-2.05L-0.3-2.05Q-0.3-2.55-0.1-3.1L-0.1-3.1 2.35-10.55Q2.75-11.85 3.45-12.4 4.15-12.95 5.25-12.95L5.25-12.95Q6.4-12.95 7.33-12.15 8.25-11.35 9.75-9.25L9.75-9.25Q11.35-6.95 12.73-6.05 14.1-5.15 16-5.15L16-5.15Q17.35-5.15 18.07-5.58 18.8-6 19.1-6.95L19.1-6.95Q19.2-7.2 19.2-7.7L19.2-7.7Q19.2-8.9 18.05-9.9 16.9-10.9 14.5-12.3L14.5-12.3Q11.95-13.85 10.35-15.08 8.75-16.3 7.58-18.15 6.4-20 6.4-22.5L6.4-22.5Q6.4-24.25 6.95-25.95L6.95-25.95Q8-29.4 11.25-31.5 14.5-33.6 18.7-33.6L18.7-33.6ZM52.3-26.45Q58.05-26.45 61.5-24.33 64.95-22.2 64.95-17.85L64.95-17.85Q64.95-16.2 64.35-14.1L64.35-14.1 62.3-7.2Q62.25-7 62.25-6.7L62.25-6.7Q62.25-5.9 62.9-5.9L62.9-5.9Q63.5-5.9 63.92-6.43 64.35-6.95 64.5-6.95L64.5-6.95Q64.75-6.95 64.92-6.6 65.1-6.25 65.1-5.8L65.1-5.8Q65.15-4.45 64.07-3.05 63-1.65 61.2-0.75 59.4 0.15 57.25 0.15L57.25 0.15Q54.65 0.15 52.8-0.8 50.95-1.75 50.25-3.6L50.25-3.6Q48.75-1.8 46.7-0.83 44.65 0.15 42.3 0.15L42.3 0.15Q39.65 0.15 37.85-0.88 36.05-1.9 35.17-3.53 34.3-5.15 34.3-6.95L34.3-6.95Q34.3-7.75 34.45-8.5L34.45-8.5Q35.25-11.95 37.92-13.7 40.6-15.45 44.3-15.45L44.3-15.45Q48.45-15.45 52.45-14.15L52.45-14.15 53.7-17.45Q54.35-19.55 54.35-20.7L54.35-20.7Q54.3-21.9 53.55-22.5 52.8-23.1 51.25-23.1L51.25-23.1Q51.55-22.3 51.55-21.45L51.55-21.45Q51.55-19.6 50.15-18.25 48.75-16.9 46.15-16.9L46.15-16.9Q43.7-16.9 42.32-17.98 40.95-19.05 40.95-20.65L40.95-20.65Q40.95-23.15 43.75-24.8 46.55-26.45 52.3-26.45L52.3-26.45ZM49.5-11.3Q48.1-11.3 47.22-10.23 46.35-9.15 46.35-7.9L46.35-7.9Q46.35-7.1 46.72-6.6 47.1-6.1 47.8-6.1L47.8-6.1Q48.45-6.1 49.22-6.63 50-7.15 50.35-8.2L50.35-8.2 51.4-11.15Q50.55-11.3 49.5-11.3L49.5-11.3ZM93.3-26.65Q97.15-26.65 99.35-24.1 101.55-21.55 101.55-17.15L101.55-17.15Q101.55-14.8 100.9-12.2L100.9-12.2Q99.4-6 95.3-2.78 91.2 0.45 85.8 0.45L85.8 0.45Q82.35 0.45 79.8-1L79.8-1 78.2 4.35Q78 4.9 78 5.4L78 5.4Q78 5.95 78.25 6.33 78.5 6.7 78.9 7.05L78.9 7.05Q79.3 7.45 79.42 7.7 79.55 7.95 79.45 8.3L79.45 8.3Q79.25 8.95 78.5 9.22 77.75 9.5 76.2 9.5L76.2 9.5 64.75 9.5Q63.45 9.5 62.87 9.08 62.3 8.65 62.55 8L62.55 8Q62.65 7.6 62.9 7.35 63.15 7.1 63.6 6.9L63.6 6.9Q64.35 6.4 64.8 5.88 65.25 5.35 65.6 4.2L65.6 4.2 72.9-19.75Q73.05-20.2 73.05-20.5L73.05-20.5Q73.05-21.05 72.8-21.38 72.55-21.7 72.05-22.05L72.05-22.05Q71.55-22.45 71.35-22.75 71.15-23.05 71.3-23.55L71.3-23.55Q71.6-24.7 74.45-25.58 77.3-26.45 80.4-26.45L80.4-26.45Q82.6-26.45 84.02-25.35 85.45-24.25 85.65-22.3L85.65-22.3Q89.05-26.65 93.3-26.65L93.3-26.65ZM87.5-11.8Q88.7-16.25 88.7-17.95L88.7-17.95Q88.7-19 88.37-19.33 88.05-19.65 87.45-19.65L87.45-19.65Q87-19.65 86.3-19.23 85.6-18.8 84.9-17.8L84.9-17.8 80.95-4.7Q81.55-4.1 82.4-4.1L82.4-4.1Q83.75-4.1 84.97-5.63 86.2-7.15 87.5-11.8L87.5-11.8ZM114.69-26.45Q117.59-26.45 118.94-25.35 120.29-24.25 120.29-22.35L120.29-22.35Q120.29-21.2 119.94-20.15L119.94-20.15 115.34-5.2Q115.19-4.6 115.19-4.15L115.19-4.15Q115.19-3.5 115.44-3.13 115.69-2.75 116.14-2.4L116.14-2.4Q116.49-2.05 116.64-1.83 116.79-1.6 116.69-1.25L116.69-1.25Q116.44-0.6 115.69-0.3 114.94 0 113.39 0L113.39 0 101.99 0Q100.69 0 100.09-0.43 99.49-0.85 99.69-1.55L99.69-1.55Q99.89-2.15 100.74-2.6L100.74-2.6Q101.49-3 101.99-3.55 102.49-4.1 102.84-5.3L102.84-5.3 107.19-19.75Q107.34-20.2 107.34-20.5L107.34-20.5Q107.34-21.05 107.09-21.38 106.84-21.7 106.34-22.05L106.34-22.05Q105.84-22.45 105.64-22.75 105.44-23.05 105.59-23.55L105.59-23.55Q105.89-24.7 108.74-25.58 111.59-26.45 114.69-26.45L114.69-26.45ZM118.04-37.5Q119.99-37.5 121.29-36.23 122.59-34.95 122.59-33.1L122.59-33.1Q122.59-31.8 121.92-30.55 121.24-29.3 120.02-28.53 118.79-27.75 117.29-27.75L117.29-27.75Q115.39-27.75 114.12-29.03 112.84-30.3 112.79-32.2L112.79-32.2Q112.79-33.45 113.44-34.68 114.09-35.9 115.29-36.7 116.49-37.5 118.04-37.5L118.04-37.5ZM147.94-7.2Q147.84-6.8 147.84-6.65L147.84-6.65Q147.84-6.3 148.04-6.1 148.24-5.9 148.54-5.9L148.54-5.9Q149.14-5.9 149.57-6.43 149.99-6.95 150.14-6.95L150.14-6.95Q150.39-6.95 150.54-6.6 150.69-6.25 150.69-5.8L150.69-5.8Q150.74-4.45 149.67-3.05 148.59-1.65 146.79-0.75 144.99 0.15 142.89 0.15L142.89 0.15Q140.39 0.15 138.54-0.8 136.69-1.75 135.99-3.3L135.99-3.3Q134.64-1.55 132.89-0.7 131.14 0.15 129.19 0.15L129.19 0.15Q126.89 0.15 124.92-1 122.94-2.15 121.77-4.28 120.59-6.4 120.59-9.1L120.59-9.1Q120.59-13.65 122.32-17.68 124.04-21.7 127.14-24.18 130.24-26.65 134.19-26.65L134.19-26.65Q136.34-26.65 137.87-26.15 139.39-25.65 140.64-24.65L140.64-24.65 142.34-30.25Q142.49-30.7 142.49-31L142.49-31Q142.49-31.55 142.22-31.9 141.94-32.25 141.49-32.6L141.49-32.6Q140.99-33 140.77-33.3 140.54-33.6 140.69-34.1L140.69-34.1Q140.99-35.25 143.84-36.1 146.69-36.95 149.79-36.95L149.79-36.95Q152.69-36.95 154.07-35.85 155.44-34.75 155.44-32.85L155.44-32.85Q155.44-31.75 155.09-30.7L155.09-30.7 147.94-7.2ZM139.59-21.25Q138.79-21.95 137.84-21.95L137.84-21.95Q136.39-21.95 134.99-19.8 133.59-17.65 132.74-14.6 131.89-11.55 131.94-9.1L131.94-9.1Q131.94-6.35 133.74-6.35L133.74-6.35Q134.39-6.35 134.84-6.88 135.29-7.4 135.69-8.6L135.69-8.6 139.59-21.25Z" opacity="1" transform="matrix(1,0,0,1,0,0)" fill="#ffffff" class="wordmark-text-0" data-fill-palette-color="primary" id="text-0"></path></svg></g></svg></g></svg></g></svg></g><g><svg viewBox="0 0 244.43135999999998 195.38576898326082" height="195.38576898326082" width="244.43135999999998"><g><svg xmlns="http://www.w3.org/2000/svg" xmlns:xlink="http://www.w3.org/1999/xlink" xmlns:a="http://ns.adobe.com/AdobeSVGViewerExtensions/3.0/" version="1.1" x="0" y="0" viewBox="0 -0.000004254926823626937 79.24081622916955 63.341004254926816" enable-background="new -12.98 -15.909 99 100" xml:space="preserve" height="195.38576898326082" width="244.43135999999998" class="icon-icon-0" data-fill-palette-color="accent" id="icon-0"><path d="M0 35.995c0 8.982 17.964 21.957 17.964 23.753s0 3.593 0 3.593h35.927c0 0 0-2.195 0-3.793 0-1.596 17.964-14.57 17.964-23.553C68.262 35.833 5.788 35.833 0 35.995z" fill="#00d1cd" data-fill-palette-color="accent"></path><path d="M71.855 31.443c0-2.103 0-3.631 0-3.631H0c0 0 0 1.528 0 3.631H71.855z" fill="#00d1cd" data-fill-palette-color="accent"></path><path d="M63.565 13.776c-3.166 1.385-6.242 2.799-7.349 3.576-0.179 0.475-0.36 0.898-0.536 1.312-0.191 0.445-0.388 0.906-0.59 1.451l-1.404 3.776-2.562-3.109c-0.132-0.161-0.386-0.43-0.598-0.43-0.037 0-0.079 0.005-0.126 0.014l-1.737 0.348-0.793-1.585c-0.02-0.039-0.039-0.072-0.057-0.099l-1.921 0.96-1.046-2.07c-0.086-0.15-0.479-0.515-0.844-0.515-0.323 0-0.693 0.322-0.885 0.513L41.936 19.1l-1.496-0.748c-0.146-0.072-0.543-0.243-1.056-0.243-0.889 0-1.75 0.538-2.562 1.601l-3.982-2.309c1.604-3.807 5.562-7.721 8.255-8.988 1.887-0.889 3.612-1.32 5.273-1.32 2.28 0 4.043 0.795 5.708 1.646 0.549-0.204 1.318-0.539 2.221-0.955-1.726-1.678-3.793-2.63-5.861-1.596-1.797-3.593-10.18-6.587-17.365 0.599-3.593-1.796-13.173-1.796-14.97 7.186-1.796-1.796-5.389-1.796-7.186 1.796-5.389-1.796-7.186 9.58-7.186 9.58h68.263C69.993 25.348 68.083 17.392 63.565 13.776z" fill="#00d1cd" data-fill-palette-color="accent"></path><path fill-rule="evenodd" clip-rule="evenodd" d="M75.622 0.135c-3.402 0.842-20.666 10.515-23.787 11.089-2.838-1.463-5.215-2.847-9.751-0.712-2.103 0.99-3.093 2.042-5.018 5.195 2.788-1.834 3.202-0.035 4.411 0.57 2.42-2.419 4.839-0.605 5.443 0.604 1.21-0.604 2.42 0 3.024 1.209 1.317-0.263 2.291 0.392 2.97 1.216 0.494-1.328 0.926-2.125 1.322-3.314 2.172-2.347 20.719-9.087 23.545-11.247C80.61 2.587 79.023-0.708 75.622 0.135z" fill="#00d1cd" data-fill-palette-color="accent"></path></svg></g></svg></g></svg></g><defs></defs></svg><rect width="395.52" height="115.66492153626021" fill="none" stroke="none" visibility="hidden"></rect></g></svg></g></svg>