<svg width="142" height="38" viewBox="0 0 142 38" fill="none" xmlns="http://www.w3.org/2000/svg">
<path d="M19 18.4C17.3 18.1 15 17.9 12.1 17.9C8.90003 17.9 6.90002 17.7 6.00002 17.3C5.10002 16.9 4.80002 16.5 5.00002 16C5.10002 15.7 5.70002 15.5 6.70002 15.3C7.70002 15.1 9.70002 15.1 12.7 15.1C15.7 15.1 17.9 15.3 19.5 15.8C21.1 16.2 22.3 17 23 18.1V11.3C22 10.5 20.7 9.90001 19.2 9.60001C17.6 9.30001 15.4 9.10001 12.7 9.10001C9.80002 9.10001 7.50002 9.30001 5.60002 9.60001C3.80002 9.90001 2.40002 10.5 1.40002 11.4C0.400024 12.2 -0.0999756 13.4 -0.0999756 14.9C-0.0999756 16.4 0.300025 17.6 1.20002 18.5C2.10002 19.4 3.40002 20 5.10002 20.3C6.80002 20.6 9.10003 20.8 12 20.8C14.9 20.8 16.8 20.9 17.8 21.2C18.8 21.5 19.3 21.8 19.3 22.3C19.3 22.6 19.1 22.9 18.8 23.1C18.4 23.3 17.7 23.4 16.6 23.5C15.5 23.6 13.8 23.7 11.5 23.7C8.40002 23.7 5.90002 23.5 4.00002 23C2.00002 22.5 0.700024 21.8 2.44156e-05 20.7V27.5C1.80002 29 5.70003 29.8 11.6 29.8C14.5 29.8 16.8 29.6 18.7 29.3C20.5 29 21.9 28.4 22.9 27.5C23.9 26.7 24.4 25.5 24.4 24C24.4 22.5 24 21.3 23.1 20.4C22.1 19.3 20.8 18.7 19 18.4Z" fill="#EAC632"/>
<path d="M54.9 19.3C54.9 15.6 53.6 13 51.1 11.5C48.6 9.9 45 9.1 40.4 9C38.4 8.9 36.4 9.1 34.4 9.5C32.4 9.9 30.8 10.5 29.6 11.2V18C30.5 16.7 31.8 15.7 33.6 15.1C35.3 14.5 37.2 14.2 39.2 14.2C42.4 14.2 44.5 14.7 45.7 15.6C46.9 16.5 47.5 17.7 47.5 19.3V20.3C46.9 19.1 45.9 18.3 44.4 17.6C42.9 17 41 16.7 38.6 16.7C36.4 16.7 34.5 17 32.9 17.5C31.3 18.1 30.1 18.8 29.3 19.8C28.5 20.8 28.1 21.9 28.1 23.1C28.1 24.3 28.5 25.5 29.3 26.5C30.1 27.5 31.3 28.3 32.8 28.8C34.4 29.4 36.3 29.6 38.6 29.6C40.8 29.6 42.6 29.3 44.1 28.7C45.5 28.1 46.6 27.3 47.3 26.2C47.3 27 47.2 28.2 47.1 29.6H55.2C55.1 27.7 55 25.7 54.9 23.6C54.9 21.5 54.9 20 54.9 19.3ZM45.8 25.1C44.7 25.6 43.2 25.8 41.3 25.8C40.7 25.8 40.3 25.8 40 25.8C38.8 25.7 37.8 25.5 37.1 25C36.4 24.5 36 23.9 36 23.1C36 22.3 36.4 21.6 37.1 21.1C37.8 20.6 38.8 20.3 40 20.3C42 20.2 43.8 20.4 45.3 20.9C46.8 21.4 47.5 22.1 47.5 23.1C47.5 24 46.9 24.6 45.8 25.1Z" fill="#EAC632"/>
<path d="M82.5 10.2C80.9 9.40002 79.0001 8.90002 76.9001 8.90002C74.7001 8.90002 72.8 9.30002 71.2 10.2C69.6 11.1 68.4 12.3 67.6 13.7C67.7 12.2 67.7001 10.7 67.8001 9.30002H59.3C59.6 13 59.7001 17.4 59.7001 22.6V23.9C59.7001 29 59.6 33.5 59.3 37.1H67.8001C67.5001 33.4 67.4001 29 67.4001 23.9C69.0001 27.2 71.8 29 75.7 29.4C76.3 29.5 76.8 29.5 77.1 29.5C79.1 29.5 80.9 29 82.5 28.1C84.1 27.2 85.4001 25.9 86.3001 24.3C87.2001 22.7 87.7 20.9 87.7 19C87.7 16.9 87.3001 15.1 86.4001 13.6C85.4001 12.3 84.2001 11.1 82.5 10.2ZM79.5 21.8C78.9 22.6 78.2 23.3 77.2 23.7C76.2 24.2 75 24.4 73.7 24.4C71.9 24.4 70.4 24 69.2 23.1C68.1 22.2 67.5 20.9 67.5 19.3C67.5 17.8 68.1001 16.6 69.3001 15.6C70.5001 14.6 72.1 14 74.1 13.9C75.4 13.8 76.5 14 77.5 14.5C78.4 15 79.2 15.6 79.6 16.5C80.1 17.3 80.3001 18.2 80.3001 19.2C80.3001 20.1 80 21 79.5 21.8Z" fill="#EAC632"/>
<path d="M99.9 14.6C100 12.8 100.1 10.9 100.2 9H91.7C91.8 11 91.9 12.8 92 14.6C92.1 16.4 92.1 17.7 92.1 18.5V20.2C92.1 21 92.1 22.3 92 24C91.9 25.8 91.8 27.6 91.7 29.5H100.2C100.1 27.6 100 25.7 99.9 24C99.8 22.2 99.8 21 99.8 20.2V18.5C99.8 17.7 99.8 16.4 99.9 14.6Z" fill="#EAC632"/>
<path d="M132.5 29.6C132.2 25.9 132.1 21.4 132.1 16.2V14.9C132.1 9.60001 132.2 4.50001 132.5 0.700012H125.1H124H0V6.10001L124.3 6.00001C124.3 8.60001 124.3 11.3 124.4 14.1C123.6 12.5 122.4 11.3 120.8 10.4C119.2 9.50001 117.3 9.00001 115 9.00001C112.9 9.00001 111 9.40001 109.4 10.3C107.8 11.1 106.5 12.3 105.6 13.9C104.7 15.5 104.3 17.3 104.3 19.3C104.3 21.2 104.8 23 105.7 24.6C106.6 26.2 107.9 27.4 109.5 28.4C111.1 29.3 112.9 29.8 114.9 29.8C115.2 29.8 115.6 29.8 116.3 29.7C120.1 29.3 122.8 27.6 124.5 24.4C124.4 26.7 124.3 28.4 124.2 29.7H132.5V29.6ZM122.6 23.1C121.5 24 120 24.4 118.1 24.4C116.8 24.4 115.6 24.2 114.6 23.7C113.6 23.2 112.8 22.6 112.3 21.8C111.7 21 111.5 20.1 111.5 19.1C111.5 18.2 111.7 17.4 112.2 16.5C112.6 15.7 113.3 15 114.1 14.5C114.9 14 116 13.8 117.1 13.8H117.7C119.7 14 121.4 14.5 122.5 15.5C123.7 16.5 124.3 17.7 124.3 19.2C124.3 20.9 123.8 22.2 122.6 23.1Z" fill="#EAC632"/>
<path d="M141.7 27.2C141.7 27.1 141.7 27 141.7 26.9V26.8C141.7 26.8 141.7 26.8 141.7 26.7V26.3V26.2C141.7 26.1 141.7 26 141.7 26C141.5 24.9 140.9 24.2 139.9 23.7C139.6 23.5 139.2 23.4 138.8 23.4C138.8 23.4 138.8 23.4 138.7 23.4H138.3H138.2C138.1 23.4 138 23.4 138 23.4C137.3 23.5 136.7 23.9 136.2 24.4C135.8 24.9 135.5 25.5 135.4 26.2C135.3 27 135.5 27.8 136 28.4C136.5 29 137.1 29.4 137.8 29.6C138.7 29.8 139.6 29.6 140.4 29C141.1 28.6 141.5 28 141.7 27.2ZM138.6 29C137.2 29 136.1 27.9 136.1 26.5C136.1 25.8 136.4 25.2 136.8 24.8C137.3 24.3 137.9 24.1 138.5 24.1C139.2 24.1 139.8 24.4 140.2 24.8C140.7 25.3 140.9 25.9 140.9 26.5C140.9 27.2 140.6 27.8 140.2 28.2C139.8 28.7 139.2 29 138.6 29Z" fill="#EAC632"/>
<path d="M138.2 27.2C138.3 27.2 138.4 27.2 138.6 27.2C138.7 27.2 138.7 27.2 138.7 27.3C138.8 27.4 138.9 27.6 139 27.7C139.1 27.8 139.2 27.9 139.2 28C139.2 28 139.2 28 139.3 28C139.5 28 139.6 28 139.8 28C139.9 28 139.9 28 140 28L139.3 27C139.6 26.8 139.8 26.5 139.7 26.1C139.7 25.7 139.5 25.5 139.2 25.3C139 25.2 138.8 25.1 138.6 25.1C138.3 25.1 138 25.1 137.8 25.1C137.7 25.1 137.6 25.1 137.5 25.1V28H138.1V27.2H138.2ZM138.1 25.7C138.2 25.7 138.3 25.7 138.3 25.7C138.5 25.7 138.6 25.7 138.8 25.7C139 25.7 139.1 25.8 139.2 26C139.2 26.2 139.2 26.3 139.1 26.4C139 26.5 138.9 26.5 138.8 26.6C138.6 26.6 138.5 26.6 138.3 26.6C138.2 26.6 138.2 26.6 138.1 26.6V25.7Z" fill="#EAC632"/>
</svg>
