<svg xmlns="http://www.w3.org/2000/svg" version="1.1" xmlns:xlink="http://www.w3.org/1999/xlink" xmlns:svgjs="http://svgjs.dev/svgjs" width="1500" height="306" viewBox="0 0 1500 306"><g transform="matrix(1,0,0,1,-0.9090909090909918,0.31314165614944045)"><svg viewBox="0 0 396 81" data-background-color="#ffffff" preserveAspectRatio="xMidYMid meet" height="306" width="1500" xmlns="http://www.w3.org/2000/svg" xmlns:xlink="http://www.w3.org/1999/xlink"><g id="tight-bounds" transform="matrix(1,0,0,1,0.2400000000000091,-0.08289043839249643)"><svg viewBox="0 0 395.52 81.16578087678498" height="81.16578087678498" width="395.52"><g><svg viewBox="0 0 641.7172800173364 131.6886229134648" height="81.16578087678498" width="395.52"><g transform="matrix(1,0,0,1,246.19728001733637,15.511489786303514)"><svg viewBox="0 0 395.52 100.66564334085777" height="100.66564334085777" width="395.52"><g id="textblocktransform"><svg viewBox="0 0 395.52 100.66564334085777" height="100.66564334085777" width="395.52" id="textblock"><g><svg viewBox="0 0 395.52 100.66564334085777" height="100.66564334085777" width="395.52"><g transform="matrix(1,0,0,1,0,0)"><svg width="395.52" viewBox="2.45 -34.6 177.18 45.1" height="100.66564334085777" data-palette-color="#bfdbff"><path d="M24.6-25.6L24.6-7.5Q24.6-4.65 23.9-2.98 23.2-1.3 21.98-0.65 20.75 0 18.75 0L18.75 0Q15.8 0 14.48-1.58 13.15-3.15 13.1-7.15L13.1-7.15 13-25.6 8.75-25.6Q5.6-25.6 4.03-26.6 2.45-27.6 2.45-30.15L2.45-30.15Q2.45-31.7 3.08-32.6 3.7-33.5 4.95-33.88 6.2-34.25 8.3-34.25L8.3-34.25 29.7-34.25Q32.5-34.25 33.75-33.25 35-32.25 35-29.8L35-29.8Q35-28.15 34.27-27.23 33.55-26.3 32.35-25.95 31.15-25.6 29.25-25.6L29.25-25.6 24.6-25.6ZM40.6 0.3L40.6 0.3Q36.65 0.3 34.05-2.93 31.45-6.15 31.45-11.75L31.45-11.75Q31.45-17.45 34.02-20.83 36.6-24.2 40.6-24.2L40.6-24.2Q44.65-24.2 48.1-21.35L48.1-21.35Q49.45-23.85 52.45-23.85L52.45-23.85Q55.15-23.85 56.65-22.68 58.15-21.5 58.15-18.35L58.15-18.35 58.15-5.35Q58.15-2.35 56.9-1.18 55.65 0 52.5 0L52.5 0Q49.2 0 48.15-1.85L48.15-1.85Q44.95 0.3 40.6 0.3ZM47.4-7.2L47.4-16.55Q46.55-18 45.2-18L45.2-18Q43.9-18 43.1-16.1 42.3-14.2 42.3-11.75L42.3-11.75Q42.3-9.45 43.05-7.65 43.8-5.85 45.15-5.85L45.15-5.85Q46.55-5.85 47.4-7.2L47.4-7.2ZM74.59-24.2L74.59-24.2Q79.25-24.2 82.34-22.3 85.45-20.4 85.45-18.15L85.45-18.15Q85.45-17.5 84.9-16.95 84.34-16.4 83.5-16.4L83.5-16.4Q82.75-16.4 81.84-16.93 80.95-17.45 80.15-18.05 79.34-18.65 78.05-19.15 76.75-19.65 75.3-19.65L75.3-19.65Q73.34-19.65 73.34-18.45L73.34-18.45Q73.34-17.6 74.34-17.1 75.34-16.6 77.27-16.05 79.2-15.5 80.2-15L80.2-15Q83.95-13.55 85.34-11.88 86.75-10.2 86.75-7.45L86.75-7.45Q86.75-6.1 86-4.78 85.25-3.45 83.75-2.27 82.25-1.1 79.67-0.38 77.09 0.35 73.8 0.35L73.8 0.35Q67.34 0.35 64.14-2.6L64.14-2.6Q62.59-4.05 62.59-5.6L62.59-5.6Q62.59-6.55 63.22-7.1 63.84-7.65 65-7.65L65-7.65Q66.14-7.65 68.5-6.53 70.84-5.4 72.84-5.4L72.84-5.4Q75.59-5.4 75.59-6.75L75.59-6.75Q75.59-7.45 74.15-7.88 72.7-8.3 70.34-8.9 68-9.5 66.59-10.4L66.59-10.4Q64.39-11.35 63.52-12.78 62.65-14.2 62.65-16.25L62.65-16.25Q62.65-19.75 65.97-21.98 69.3-24.2 74.59-24.2ZM92.44-10.7L92.44-10.7 92.44-16.6Q91.19-16.65 90.44-17.03 89.69-17.4 89.37-18 89.04-18.6 89.04-19.5L89.04-19.5Q89.04-22.35 92.49-22.6L92.49-22.6 92.49-27.25Q92.49-29.15 95.24-30.68 97.99-32.2 100.69-32.2L100.69-32.2Q102.34-32.2 102.84-31.25 103.34-30.3 103.34-28.4L103.34-28.4 103.39-22.65 104.74-22.65Q107.49-22.65 108.52-21.93 109.54-21.2 109.54-19.3L109.54-19.3Q109.54-18.5 109.24-17.95 108.94-17.4 108.27-17.1 107.59-16.8 106.64-16.68 105.69-16.55 104.29-16.55L104.29-16.55 103.39-16.55 103.39-11.05Q103.39-10.25 103.47-9.73 103.54-9.2 103.69-8.9 103.84-8.6 104.12-8.5 104.39-8.4 104.79-8.4L104.79-8.4Q105.39-8.4 105.79-8.83 106.19-9.25 106.42-9.78 106.64-10.3 107.02-10.73 107.39-11.15 107.89-11.15L107.89-11.15Q109.04-11.15 109.67-10.6 110.29-10.05 110.29-9.25L110.29-9.25Q110.29-7.9 109.77-6.35 109.24-4.8 108.24-3.35 107.24-1.9 105.47-0.95 103.69 0 101.49 0L101.49 0Q96.54 0 94.49-2.5 92.44-5 92.44-10.7ZM114.84-30.8L114.84-30.8Q114.84-32.45 116.27-33.52 117.69-34.6 120.29-34.6L120.29-34.6Q125.74-34.6 125.74-30.8L125.74-30.8Q125.74-28.7 124.37-27.85 122.99-27 120.29-27L120.29-27Q117.94-27 116.39-27.9 114.84-28.8 114.84-30.8ZM125.69-18.35L125.69-5.35Q125.69-2.35 124.44-1.18 123.19 0 120.04 0L120.04 0Q117.09 0 116.02-1.38 114.94-2.75 114.94-5.9L114.94-5.9 114.94-18.2Q114.94-20.75 116.32-22.3 117.69-23.85 119.99-23.85L119.99-23.85Q122.69-23.85 124.19-22.68 125.69-21.5 125.69-18.35L125.69-18.35ZM144.89-26.3L144.89-26.3Q143.84-25.45 143.84-22.35L143.84-22.35Q147.19-22.35 148.49-21.73 149.79-21.1 149.79-19L149.79-19Q149.79-17.3 148.39-16.78 146.99-16.25 143.84-16.25L143.84-16.25 143.84-7.5Q143.84-3.25 142.51-1.63 141.19 0 138.34 0L138.34 0Q135.54 0 134.24-1.58 132.94-3.15 132.94-7.15L132.94-7.15 132.99-16.25Q129.29-16.3 129.29-19.15L129.29-19.15Q129.29-22.1 133.04-22.3L133.04-22.3Q133.09-28.75 134.91-31.48 136.74-34.2 141.94-34.2L141.94-34.2Q146.09-34.2 148.41-32.5 150.74-30.8 150.74-29.05L150.74-29.05Q150.74-28.3 150.11-27.73 149.49-27.15 148.34-27.15L148.34-27.15Q145.89-27.15 144.89-26.3ZM179.63-14.1L179.63-14.1Q179.63-5.55 179.13-2.15L179.13-2.15Q178.74 0.9 177.88 3.13 177.03 5.35 175.49 7.08 173.94 8.8 171.53 9.65 169.13 10.5 165.84 10.5L165.84 10.5Q163.19 10.5 160.91 9.73 158.63 8.95 157.31 7.83 155.99 6.7 155.24 5.6 154.49 4.5 154.49 3.7 154.49 2.9 155.01 2.23 155.53 1.55 156.44 1.55L156.44 1.55Q157.09 1.55 157.96 1.95 158.84 2.35 159.63 2.85 160.44 3.35 161.53 3.75 162.63 4.15 163.69 4.15L163.69 4.15Q166.38 4.15 167.51 2.8 168.63 1.45 168.63-1.05L168.63-1.05Q167.78-0.7 166.99-0.45 166.19-0.2 165.44-0.05 164.69 0.1 164.01 0.15 163.34 0.2 162.69 0.2L162.69 0.2Q159.74 0.2 157.63-1.45 155.53-3.1 154.61-5.53 153.69-7.95 153.69-10.75L153.69-10.75Q153.69-13.55 153.76-15.5 153.84-17.45 154.09-18.98 154.34-20.5 154.66-21.4 154.99-22.3 155.59-22.88 156.19-23.45 156.94-23.65 157.69-23.85 158.74-23.85L158.74-23.85Q161.88-23.85 163.16-22.78 164.44-21.7 164.44-19.4L164.44-19.4 164.49-11.35Q164.49-10.55 164.49-10.18 164.49-9.8 164.56-9.25 164.63-8.7 164.76-8.45 164.88-8.2 165.11-7.93 165.34-7.65 165.71-7.55 166.09-7.45 166.63-7.45L166.63-7.45Q168.13-7.45 168.51-8.28 168.88-9.1 168.88-11.3L168.88-11.3 168.94-19.4Q168.94-20.95 169.46-21.9 169.99-22.85 171.24-23.35 172.49-23.85 174.63-23.85L174.63-23.85Q175.94-23.85 176.86-23.43 177.78-23 178.34-22.33 178.88-21.65 179.16-20.33 179.44-19 179.53-17.65 179.63-16.3 179.63-14.1Z" opacity="1" transform="matrix(1,0,0,1,0,0)" fill="#bfdbff" class="wordmark-text-0" data-fill-palette-color="primary" id="text-0"></path></svg></g></svg></g></svg></g></svg></g><g><svg viewBox="0 0 222.43253760000002 131.6886229134648" height="131.6886229134648" width="222.43253760000002"><g><svg xmlns="http://www.w3.org/2000/svg" xmlns:xlink="http://www.w3.org/1999/xlink" version="1.1" x="0" y="0" viewBox="5.465000000000015 25.406 90.83699999999999 53.779" enable-background="new 0 0 100 100" xml:space="preserve" height="131.6886229134648" width="222.43253760000002" class="icon-icon-0" data-fill-palette-color="accent" id="icon-0"><path d="M96.302 61.326c-2.653 0-3.998-0.624-5.297-1.228-1.237-0.574-2.407-1.117-4.803-1.117-2.394 0-3.563 0.543-4.801 1.117-1.299 0.604-2.643 1.228-5.297 1.228-2.652 0-3.995-0.624-5.293-1.228-1.238-0.574-2.406-1.117-4.8-1.117-2.395 0-3.563 0.543-4.801 1.117-1.299 0.604-2.641 1.228-5.296 1.228-2.651 0-3.993-0.624-5.29-1.228-1.238-0.574-2.407-1.117-4.8-1.117-2.393 0-3.561 0.543-4.797 1.117-1.298 0.604-2.64 1.228-5.292 1.228s-3.994-0.624-5.291-1.228c-1.237-0.574-2.406-1.117-4.798-1.117-2.394 0-3.561 0.543-4.799 1.117-1.297 0.604-2.639 1.228-5.292 1.228-2.652 0-3.994-0.624-5.291-1.228-1.237-0.574-2.405-1.117-4.799-1.117V57.81c2.652 0 3.995 0.623 5.292 1.227 1.237 0.575 2.405 1.118 4.797 1.118 2.393 0 3.561-0.543 4.798-1.118 1.298-0.604 2.64-1.227 5.292-1.227 2.651 0 3.993 0.623 5.292 1.227 1.236 0.575 2.403 1.118 4.796 1.118s3.561-0.543 4.797-1.118c1.298-0.604 2.64-1.227 5.292-1.227 2.653 0 3.995 0.623 5.294 1.227 1.234 0.575 2.403 1.118 4.796 1.118 2.396 0 3.564-0.543 4.802-1.118 1.3-0.604 2.643-1.227 5.295-1.227s3.995 0.623 5.293 1.227c1.238 0.575 2.405 1.118 4.8 1.118s3.565-0.543 4.802-1.118c1.3-0.604 2.644-1.227 5.296-1.227 2.655 0 3.998 0.622 5.297 1.227 1.237 0.575 2.407 1.118 4.803 1.118V61.326z" fill="#f67357" data-fill-palette-color="accent"></path><rect x="9.959" y="62.497" width="81.849" height="6.446" fill="#f67357" data-fill-palette-color="accent"></rect><g fill="#f67357" data-fill-palette-color="accent"><rect x="13.787" y="52.341" transform="matrix(0.9916 -0.129 0.129 0.9916 -6.7017 4.5621)" width="36.138" height="3.32" fill="#f67357" data-fill-palette-color="accent"></rect><rect x="51.833" y="52.759" transform="matrix(0.9973 0.0737 -0.0737 0.9973 4.1988 -5.0015)" width="36.137" height="3.321" fill="#f67357" data-fill-palette-color="accent"></rect></g><path d="M87.788 69.968c0 5.091-4.125 9.217-9.216 9.217H22.94c-5.09 0-9.215-4.126-9.215-9.217H87.788z" fill="#f67357" data-fill-palette-color="accent"></path><path d="M50.239 48.528c-1.337 0-2.033-0.754-2.59-1.361-0.507-0.55-0.907-0.983-1.729-0.983-0.823 0-1.223 0.434-1.729 0.983-0.559 0.606-1.255 1.361-2.591 1.361-1.335 0-2.03-0.754-2.588-1.361-0.504-0.55-0.904-0.983-1.725-0.983-0.821 0-1.22 0.434-1.724 0.983-0.558 0.605-1.252 1.361-2.588 1.361-1.335 0-2.029-0.754-2.587-1.361-0.505-0.55-0.903-0.983-1.725-0.983s-1.22 0.434-1.725 0.983c-0.558 0.606-1.252 1.361-2.588 1.361s-2.029-0.754-2.587-1.361c-0.504-0.55-0.904-0.983-1.725-0.983-0.821 0-1.221 0.434-1.725 0.983-0.558 0.606-1.252 1.361-2.588 1.361s-2.028-0.755-2.587-1.361c-0.504-0.55-0.903-0.983-1.724-0.983v-1.172c1.335 0 2.03 0.756 2.587 1.361 0.505 0.549 0.904 0.983 1.724 0.983 0.821 0 1.22-0.434 1.725-0.983 0.558-0.607 1.252-1.361 2.588-1.361 1.336 0 2.03 0.756 2.587 1.361 0.505 0.549 0.904 0.983 1.725 0.983 0.821 0 1.22-0.434 1.725-0.983 0.559-0.607 1.253-1.361 2.588-1.361 1.335 0 2.03 0.756 2.588 1.362 0.504 0.548 0.904 0.982 1.724 0.982 0.821 0 1.22-0.434 1.725-0.983 0.559-0.607 1.252-1.361 2.587-1.361 1.335 0 2.03 0.754 2.588 1.361 0.505 0.549 0.903 0.983 1.725 0.983 0.823 0 1.223-0.434 1.729-0.983 0.56-0.607 1.254-1.361 2.591-1.361s2.032 0.754 2.591 1.361c0.505 0.549 0.906 0.983 1.729 0.983V48.528z" fill="#f67357" data-fill-palette-color="accent"></path><path d="M87.765 49.605c-1.336-0.075-1.987-0.866-2.512-1.501-0.476-0.577-0.851-1.033-1.671-1.078-0.828-0.048-1.246 0.364-1.782 0.886-0.593 0.574-1.342 1.276-2.663 1.213-1.333-0.073-1.984-0.865-2.508-1.502-0.475-0.576-0.848-1.031-1.667-1.077-0.807-0.047-1.243 0.365-1.777 0.884-0.591 0.574-1.313 1.292-2.66 1.215-1.332-0.073-1.983-0.865-2.507-1.501-0.473-0.577-0.846-1.032-1.665-1.077-0.828-0.047-1.243 0.365-1.778 0.885-0.591 0.574-1.317 1.288-2.66 1.214-1.331-0.074-1.983-0.866-2.506-1.503-0.474-0.577-0.848-1.031-1.668-1.077-0.852-0.042-1.242 0.365-1.777 0.886-0.591 0.575-1.309 1.282-2.66 1.214-1.332-0.073-1.984-0.866-2.506-1.503-0.474-0.576-0.847-1.031-1.667-1.077l0.066-1.169c1.333 0.074 1.984 0.866 2.507 1.503 0.474 0.577 0.849 1.031 1.666 1.077 0.858 0.049 1.244-0.365 1.778-0.886 0.59-0.573 1.316-1.28 2.66-1.214 1.331 0.073 1.982 0.865 2.507 1.502 0.475 0.576 0.847 1.032 1.668 1.077 0.8 0.051 1.242-0.364 1.777-0.885 0.589-0.573 1.318-1.288 2.659-1.215 1.332 0.074 1.983 0.866 2.507 1.502 0.473 0.577 0.847 1.031 1.665 1.077 0.822 0.051 1.242-0.364 1.777-0.885 0.591-0.573 1.313-1.283 2.659-1.213 1.333 0.074 1.984 0.866 2.507 1.502 0.475 0.577 0.85 1.031 1.668 1.077 0.826 0.038 1.247-0.365 1.783-0.885 0.59-0.575 1.362-1.28 2.662-1.214 1.335 0.074 1.986 0.866 2.511 1.501 0.476 0.577 0.852 1.033 1.67 1.079L87.765 49.605z" fill="#f67357" data-fill-palette-color="accent"></path><g fill="#f67357" data-fill-palette-color="accent"><path d="M70.428 25.406H31.086c-9.589 0-17.361 7.773-17.361 17.362h74.063C87.788 33.179 80.016 25.406 70.428 25.406zM22.809 37.363c-0.646 0.037-1.488-0.147-1.505-0.435-0.017-0.288 0.798-0.57 1.443-0.609 0.646-0.039 0.879 0.184 0.897 0.471C23.66 37.078 23.456 37.325 22.809 37.363zM25.7 30.784c-0.451 0.464-1.198 0.896-1.405 0.695-0.206-0.201 0.205-0.96 0.656-1.423 0.451-0.464 0.772-0.458 0.978-0.257C26.137 30 26.151 30.321 25.7 30.784zM30.981 32.427c-0.288 0.02-0.579-0.792-0.623-1.438-0.046-0.646 0.174-0.881 0.461-0.9s0.537 0.183 0.582 0.828C31.445 31.563 31.27 32.407 30.981 32.427zM32.913 37.889c-0.647 0.038-1.488-0.146-1.506-0.434-0.017-0.288 0.798-0.57 1.444-0.608 0.646-0.039 0.879 0.184 0.897 0.471C33.765 37.605 33.56 37.852 32.913 37.889zM37.374 31.779c-0.647 0.038-1.489-0.147-1.506-0.434-0.017-0.289 0.798-0.571 1.444-0.609s0.879 0.184 0.896 0.471C38.225 31.495 38.02 31.741 37.374 31.779zM41.903 36.096c-0.452 0.464-1.198 0.896-1.405 0.694-0.206-0.201 0.205-0.959 0.657-1.423 0.45-0.464 0.771-0.458 0.978-0.257C42.339 35.311 42.354 35.632 41.903 36.096zM47.842 29.7c-0.648 0.038-1.49-0.146-1.507-0.435-0.016-0.288 0.798-0.57 1.444-0.609s0.879 0.184 0.896 0.472C48.692 29.415 48.488 29.662 47.842 29.7zM54.441 34.767c-0.285 0.02-0.577-0.792-0.622-1.438-0.046-0.646 0.174-0.881 0.461-0.9 0.288-0.02 0.537 0.183 0.582 0.828C54.906 33.903 54.73 34.748 54.441 34.767zM63.385 31.715c-0.452 0.464-1.198 0.896-1.404 0.695-0.208-0.201 0.203-0.959 0.655-1.423 0.45-0.464 0.772-0.458 0.979-0.257C63.82 30.93 63.836 31.25 63.385 31.715zM66.412 37.363c-0.647 0.037-1.488-0.147-1.504-0.435-0.019-0.288 0.796-0.57 1.442-0.609s0.88 0.184 0.896 0.471C67.263 37.078 67.059 37.325 66.412 37.363zM68.813 30.609c-0.646 0.037-1.486-0.146-1.504-0.435-0.018-0.287 0.797-0.57 1.442-0.609 0.647-0.039 0.88 0.184 0.898 0.472C69.665 30.324 69.46 30.571 68.813 30.609zM73.05 34.767c-0.286 0.02-0.578-0.792-0.623-1.438-0.046-0.646 0.175-0.881 0.461-0.9 0.287-0.02 0.538 0.183 0.581 0.828C73.514 33.903 73.339 34.748 73.05 34.767zM81.372 37.363c-0.647 0.037-1.488-0.147-1.505-0.435-0.018-0.288 0.797-0.57 1.443-0.609s0.879 0.184 0.896 0.471C82.223 37.078 82.019 37.325 81.372 37.363z" fill="#f67357" data-fill-palette-color="accent"></path></g></svg></g></svg></g></svg></g><defs></defs></svg><rect width="395.52" height="81.16578087678498" fill="none" stroke="none" visibility="hidden"></rect></g></svg></g></svg>